HIERARCHY
ROOT Hips
{
	OFFSET 0.000000 0.000000 0.000000
	CHANNELS 6 Xposition Yposition Zposition Zrotation Yrotation Xrotation 
	JOINT LHipJoint
	{
		OFFSET 0.000000 0.000000 0.000000
		CHANNELS 3 Zrotation Yrotation Xrotation
		JOINT LeftUpLeg
		{
			OFFSET 1.363060 -1.794630 0.839290
			CHANNELS 3 Zrotation Yrotation Xrotation
			JOINT LeftLeg
			{
				OFFSET 2.448110 -6.726130 0.000000
				CHANNELS 3 Zrotation Yrotation Xrotation
				JOINT LeftFoot
				{
					OFFSET 2.562200 -7.039590 0.000000
					CHANNELS 3 Zrotation Yrotation Xrotation
					JOINT LeftToeBase
					{
						OFFSET 0.157640 -0.433110 2.322550
						CHANNELS 3 Zrotation Yrotation Xrotation
						End Site
						{
							OFFSET 0.000000 0.000000 0.000000
						}
					}
				}
			}
		}
	}
	JOINT RHipJoint
	{
		OFFSET 0.000000 0.000000 0.000000
		CHANNELS 3 Zrotation Yrotation Xrotation
		JOINT RightUpLeg
		{
			OFFSET -1.305520 -1.794630 0.839290
			CHANNELS 3 Zrotation Yrotation Xrotation
			JOINT RightLeg
			{
				OFFSET -2.542530 -6.985550 0.000000
				CHANNELS 3 Zrotation Yrotation Xrotation
				JOINT RightFoot
				{
					OFFSET -2.568260 -7.056230 0.000000
					CHANNELS 3 Zrotation Yrotation Xrotation
					JOINT RightToeBase
					{
						OFFSET -0.164730 -0.452590 2.363150
						CHANNELS 3 Zrotation Yrotation Xrotation
						End Site
						{
							OFFSET 0.000000 0.000000 0.000000
						}
					}
				}
			}
		}
	}
	JOINT LowerBack
	{
		OFFSET 0.000000 0.000000 0.000000
		CHANNELS 3 Zrotation Yrotation Xrotation
		JOINT Spine
		{
			OFFSET 0.028270 2.035590 -0.193380
			CHANNELS 3 Zrotation Yrotation Xrotation
			JOINT Spine1
			{
				OFFSET 0.056720 2.048850 -0.042750
				CHANNELS 3 Zrotation Yrotation Xrotation
				JOINT Neck
				{
					OFFSET 0.000000 0.000000 0.000000
					CHANNELS 3 Zrotation Yrotation Xrotation
					JOINT Neck1
					{
						OFFSET -0.054170 1.746240 0.172020
						CHANNELS 3 Zrotation Yrotation Xrotation
						JOINT Head
						{
							OFFSET 0.104070 1.761360 -0.123970
							CHANNELS 3 Zrotation Yrotation Xrotation
							End Site
							{
								OFFSET 0.000000 0.000000 0.000000
							}
						}
					}
				}
				JOINT LeftShoulder
				{
					OFFSET 0.000000 0.000000 0.000000
					CHANNELS 3 Zrotation Yrotation Xrotation
					JOINT LeftArm
					{
						OFFSET 3.362410 1.200890 -0.311210
						CHANNELS 3 Zrotation Yrotation Xrotation
						JOINT LeftForeArm
						{
							OFFSET 4.983000 -0.000000 -0.000000
							CHANNELS 3 Zrotation Yrotation Xrotation
							JOINT LeftHand
							{
								OFFSET 3.483560 -0.000000 -0.000000
								CHANNELS 3 Zrotation Yrotation Xrotation
								JOINT LeftFingerBase
								{
									OFFSET 0.000000 0.000000 0.000000
									CHANNELS 3 Zrotation Yrotation Xrotation
									JOINT LeftHandIndex1
									{
										OFFSET 0.715260 -0.000000 -0.000000
										CHANNELS 3 Zrotation Yrotation Xrotation
										End Site
										{
											OFFSET 0.000000 0.000000 0.000000
										}
									}
								}
								JOINT LThumb
								{
									OFFSET 0.000000 0.000000 0.000000
									CHANNELS 3 Zrotation Yrotation Xrotation
									End Site
									{
										OFFSET 0.000000 0.000000 0.000000
									}
								}
							}
						}
					}
				}
				JOINT RightShoulder
				{
					OFFSET 0.000000 0.000000 0.000000
					CHANNELS 3 Zrotation Yrotation Xrotation
					JOINT RightArm
					{
						OFFSET -3.136600 1.374050 -0.404650
						CHANNELS 3 Zrotation Yrotation Xrotation
						JOINT RightForeArm
						{
							OFFSET -5.241900 -0.000000 -0.000000
							CHANNELS 3 Zrotation Yrotation Xrotation
							JOINT RightHand
							{
								OFFSET -3.444170 -0.000000 -0.000000
								CHANNELS 3 Zrotation Yrotation Xrotation
								JOINT RightFingerBase
								{
									OFFSET 0.000000 0.000000 0.000000
									CHANNELS 3 Zrotation Yrotation Xrotation
									JOINT RightHandIndex1
									{
										OFFSET -0.622530 -0.000000 -0.000000
										CHANNELS 3 Zrotation Yrotation Xrotation
										End Site
										{
											OFFSET 0.000000 0.000000 0.000000
										}
									}
								}
								JOINT RThumb
								{
									OFFSET 0.000000 0.000000 0.000000
									CHANNELS 3 Zrotation Yrotation Xrotation
									End Site
									{
										OFFSET 0.000000 0.000000 0.000000
									}
								}
							}
						}
					}
				}
			}
		}
	}
}
MOTION
Frames: 10
Frame Time: 0.008333
-1.770154 17.783849 22.570007 -173.992698 -0.274584 -164.670229 8.594868 2.185478 -1.987702 -25.307998 -14.905440 -8.123638 -0.257713 6.876277 19.233880 1.428618 -3.413414 -23.389767 1.612200 -8.006600 -22.734200 -13.182005 -2.775582 -1.319807 21.510303 14.757066 -74.410424 -13.663260 -26.062048 75.999388 -1.542895 5.893890 -22.639923 -2.263600 9.394900 -27.038500 -4.385668 -2.495197 -15.861127 2.075707 -2.745412 -3.944044 1.795822 -2.306269 14.933055 -8.779978 -5.726720 -2.295128 12.361776 -9.757234 25.421914 1.696400 -2.975900 5.388100 16.464497 -0.982782 0.737253 -101.980327 -0.996446 19.369509 13.487007 -16.460959 -2.510195 -1.713176 0.828042 3.233707 20.862358 -12.080865 -5.242200 -7.125000 0.000000 0.000000 -3.224500 16.248900 2.197000 -11.005088 -0.351817 0.167118 99.386836 -9.709106 11.992688 -16.496796 28.326949 -5.281210 0.300724 3.881982 -3.181529 -11.484253 -49.363674 9.664200 7.125000 0.000000 0.000000 -13.256100 8.434200 -168.511400 
-1.765447 17.779033 22.537060 -173.491774 -0.616534 -164.919694 8.578804 2.198291 -2.002215 -24.744648 -14.922304 -7.834038 -0.222096 6.893172 19.401592 1.425651 -3.670884 -23.468481 1.431200 -7.564200 -21.398200 -13.187746 -2.806670 -1.304029 21.367544 14.690739 -74.134404 -12.961428 -25.882697 74.143274 -1.465238 5.325795 -22.295330 -2.499800 9.837500 -28.452100 -4.046099 -2.424919 -15.894477 2.135918 -2.772523 -3.905587 1.805923 -2.296259 15.076967 -8.688493 -5.917701 -1.634146 12.647201 -10.247756 24.655261 1.735700 -3.296500 4.999800 16.476021 -1.077538 0.747146 -101.927335 -1.103257 19.545423 13.515019 -16.504552 -2.517469 -1.741166 0.775294 3.129894 21.095308 -11.656831 -5.113900 -7.125000 0.000000 0.000000 -3.024300 16.733500 2.028300 -10.982955 -0.450831 0.171488 99.387492 -9.747114 11.811385 -16.382199 28.178511 -5.216637 0.294331 3.901359 -3.035428 -11.281533 -49.660129 9.526000 7.125000 0.000000 0.000000 -13.369300 8.187500 -168.340500 
-1.759755 17.776078 22.496013 -173.432724 -0.844150 -165.099468 8.573954 2.226311 -1.992013 -24.733084 -14.976108 -7.548646 -0.196881 6.907217 19.514052 1.428082 -3.888629 -23.587483 1.339800 -7.328900 -20.693600 -13.186423 -2.802626 -1.306929 20.646114 14.566930 -73.981006 -12.358576 -25.705895 72.517207 -1.447685 4.851951 -22.354381 -2.597700 10.013500 -29.020400 -4.108575 -2.451926 -16.006543 2.117827 -2.855004 -3.892480 1.733360 -2.406839 15.211407 -8.922470 -5.692901 -2.529030 12.355763 -9.634493 26.153708 1.752500 -2.841500 5.659700 16.472521 -0.947236 0.745791 -101.841310 -1.045864 19.566871 13.572533 -16.581878 -2.537435 -1.763537 0.754129 3.082376 21.344745 -11.488726 -5.102100 -7.125000 0.000000 0.000000 -2.827500 16.911400 1.885000 -10.992767 -0.337188 0.196179 99.489156 -9.731208 11.675796 -16.261134 28.054120 -5.154048 0.306840 3.919524 -2.822615 -11.380643 -49.946573 9.643400 7.125000 0.000000 0.000000 -13.354100 7.882000 -168.271700 
-1.748809 17.771809 22.454200 -173.177381 -1.111805 -165.303519 8.568685 2.241317 -1.998312 -24.443639 -14.976403 -7.327005 -0.155912 6.965858 19.766515 1.445878 -4.039721 -23.755729 1.403900 -7.495000 -21.190400 -13.185326 -2.815349 -1.294073 20.178887 14.519765 -73.703282 -11.713024 -25.501611 70.772148 -1.443579 4.307285 -22.537252 -2.737800 10.258100 -29.816500 -3.966643 -2.463118 -16.079515 2.114269 -2.898831 -3.875181 1.611810 -2.415284 15.318498 -8.759673 -5.805732 -2.371562 12.413634 -9.850748 25.989503 1.725400 -2.956400 5.562000 16.484291 -0.962519 0.747304 -101.738676 -1.041645 19.332403 13.612675 -16.657427 -2.553987 -1.743252 0.720495 3.161556 21.175776 -11.213775 -4.929400 -7.125000 0.000000 0.000000 -2.945900 17.260300 1.941800 -10.996752 -0.376277 0.202821 99.684798 -9.780013 11.473874 -16.211310 28.006443 -5.128031 0.310785 3.953867 -2.611528 -11.376610 -50.638176 9.719900 7.125000 0.000000 0.000000 -13.419700 7.210400 -168.029200 
-1.735018 17.770276 22.417532 -172.881076 -1.358913 -165.394120 8.555697 2.245236 -1.987962 -24.014305 -15.003386 -7.341504 -0.104550 7.071312 20.105810 1.445372 -4.287368 -23.881070 1.381300 -7.436900 -21.016400 -13.195955 -2.825927 -1.259141 19.666622 14.603533 -73.443538 -10.973848 -25.240898 68.754569 -1.401459 3.961140 -22.440392 -2.579200 9.980400 -28.913400 -4.010036 -2.470486 -15.904259 2.185634 -2.953911 -3.981837 1.884986 -2.431415 14.861140 -8.820729 -5.873170 -2.097829 12.415249 -9.950099 26.093994 1.732000 -2.990600 5.557500 16.506486 -0.942103 0.734931 -101.839040 -0.694196 19.220952 13.613700 -16.682151 -2.565998 -1.720140 0.774335 3.420186 21.021709 -11.639162 -5.081100 -7.125000 0.000000 0.000000 -3.086500 16.769500 2.067700 -10.970289 -0.376457 0.194814 99.603571 -10.192627 11.193613 -16.134919 27.900453 -5.083183 0.306187 3.973113 -2.519688 -11.264231 -50.833106 9.644500 7.125000 0.000000 0.000000 -13.485100 7.037700 -167.920600 
-1.726480 17.767868 22.379003 -172.779547 -1.677044 -165.532655 8.554316 2.249687 -1.975052 -23.895935 -15.162247 -7.195162 -0.058691 7.149679 20.376943 1.441333 -4.574915 -24.007057 1.281600 -7.174200 -20.232500 -13.197198 -2.829868 -1.242543 18.967069 14.398438 -73.119275 -10.226448 -24.925217 66.669272 -1.327437 3.747243 -22.073283 -2.158000 9.187800 -26.384500 -4.133318 -2.544383 -15.830055 2.203725 -3.039535 -4.034294 1.996603 -2.470497 14.660341 -8.884760 -5.800520 -1.983011 12.573465 -9.893149 26.210102 1.801000 -2.934000 5.584100 16.519323 -0.933822 0.731245 -101.786718 -0.458491 19.311270 13.641483 -16.741199 -2.584425 -1.708381 0.761099 3.394645 20.912883 -11.567522 -5.017800 -7.125000 0.000000 0.000000 -3.167300 16.869600 2.115200 -10.957867 -0.388506 0.195846 99.551851 -10.361603 11.071198 -15.992401 27.713677 -5.006501 0.314734 3.933380 -2.507787 -11.213471 -49.951058 9.499100 7.125000 0.000000 0.000000 -13.427700 7.901000 -168.208500 
-1.718271 17.761301 22.331936 -172.683160 -2.052441 -165.721738 8.553147 2.257946 -1.974029 -23.819588 -15.347372 -6.896311 -0.020638 7.198638 20.591384 1.450456 -4.735714 -24.128177 1.318100 -7.271700 -20.522800 -13.201700 -2.836007 -1.238485 18.329810 14.145115 -72.637698 -9.495464 -24.588209 64.607500 -1.270988 3.030244 -21.886713 -2.169700 9.211000 -26.457800 -4.246475 -2.650993 -16.039844 2.231991 -3.145622 -3.993246 2.093572 -2.542520 14.966709 -8.955254 -5.839622 -1.906933 12.710782 -10.012581 26.142342 1.846500 -3.002600 5.535000 16.511216 -0.953361 0.742447 -101.742164 -0.530713 19.385406 13.662977 -16.781706 -2.594054 -1.688987 0.697396 3.087306 20.642075 -11.143129 -4.756000 -7.125000 0.000000 0.000000 -3.354500 17.405500 2.201300 -10.937086 -0.428767 0.201566 99.471417 -10.265329 11.005401 -15.921455 27.616435 -4.968491 0.323786 3.896003 -2.543100 -11.260422 -49.158338 9.445300 7.125000 0.000000 0.000000 -13.339900 8.658800 -168.495700 
-1.701195 17.751231 22.280928 -172.238211 -2.399598 -165.946724 8.550548 2.274951 -1.995185 -23.260651 -15.341590 -6.651923 0.018619 7.230945 20.793970 1.455258 -4.871139 -24.175596 1.378600 -7.430000 -20.995600 -13.212015 -2.852980 -1.212870 18.018508 14.276582 -71.975163 -8.757851 -24.234187 62.518271 -1.202671 2.096619 -21.625082 -2.301600 9.467800 -27.270000 -3.924677 -2.607078 -16.242692 2.239320 -3.160925 -3.943880 1.936465 -2.532794 15.237321 -8.891633 -5.985513 -1.752805 12.876065 -10.302466 26.056201 1.876500 -3.150500 5.466900 16.516772 -0.983433 0.751481 -101.463554 -0.622847 19.516851 13.646087 -16.773211 -2.590255 -1.659297 0.676875 2.764933 20.290730 -11.085643 -4.640800 -7.125000 0.000000 0.000000 -3.621500 17.508900 2.369000 -10.942525 -0.481272 0.211295 99.672030 -10.249465 10.841302 -15.895636 27.601860 -4.957589 0.330166 3.904069 -2.470974 -11.347790 -49.372402 9.544800 7.125000 0.000000 0.000000 -13.321500 8.432900 -168.451100 
-1.706668 17.745977 22.246778 -172.307820 -2.779281 -165.971484 8.552751 2.263124 -1.947565 -23.433612 -15.614678 -6.669918 0.068845 7.367678 21.168311 1.474119 -4.995809 -24.387260 1.450900 -7.613900 -21.547500 -13.209086 -2.853266 -1.169654 17.116688 13.963724 -71.699144 -8.106354 -23.861827 60.595273 -1.097874 1.661761 -20.918069 -2.161300 9.194300 -26.405000 -4.079004 -2.668104 -15.556760 2.267679 -3.289147 -4.230762 2.116314 -2.538289 13.872412 -9.158710 -6.114037 -1.346052 12.832641 -10.430846 26.439843 1.932900 -3.175100 5.591200 16.552976 -0.914380 0.705202 -101.599255 0.333187 19.625109 13.645007 -16.792659 -2.604223 -1.661594 0.698913 2.671636 20.297329 -11.319568 -4.743900 -7.125000 0.000000 0.000000 -3.625000 17.233100 2.393100 -10.974945 -0.449473 0.178607 99.508328 -11.353714 10.924103 -15.980127 27.727473 -5.006868 0.328810 3.927312 -2.549895 -11.470356 -49.755595 9.698100 7.125000 0.000000 0.000000 -13.302100 8.028900 -168.359700 
-1.682697 17.737767 22.195661 -171.718280 -3.152294 -166.257014 8.540471 2.288399 -1.968936 -22.649760 -15.540117 -6.452805 0.122755 7.427280 21.466405 1.491635 -5.143724 -24.505727 1.533300 -7.817600 -22.161300 -13.231725 -2.870042 -1.131262 16.964362 14.170956 -70.864326 -7.355161 -23.420192 58.376584 -0.995612 0.926264 -20.236002 -2.051000 8.971600 -25.706500 -3.772503 -2.651221 -15.689622 2.322813 -3.350085 -4.196055 2.111266 -2.562733 14.073384 -9.173512 -6.125453 -1.414934 12.957783 -10.466394 26.640999 1.978300 -3.161400 5.664700 16.558969 -0.906413 0.714546 -101.443154 0.331938 19.639512 13.613648 -16.754694 -2.590059 -1.662585 0.694278 2.642968 20.293935 -11.271837 -4.723100 -7.125000 0.000000 0.000000 -3.625100 17.288200 2.388900 -10.956767 -0.467503 0.189455 99.596473 -11.368422 10.681263 -15.901153 27.635072 -4.965261 0.337328 3.924827 -2.439817 -11.508788 -49.664549 9.719100 7.125000 0.000000 0.000000 -13.278900 8.105300 -168.401700 
